<svg version="1.1" id="Layer_1" xmlns="http://www.w3.org/2000/svg" xmlns:xlink="http://www.w3.org/1999/xlink" x="0px" y="0px"
	 width="100%" viewBox="0 0 1024 1024" enable-background="new 0 0 1024 1024" xml:space="preserve">
<path fill="#000000" opacity="1.000000" stroke="none" 
	d="
M554.000000,1025.000000 
	C369.333344,1025.000000 185.166672,1025.000000 1.000000,1025.000000 
	C1.000000,683.666687 1.000000,342.333344 1.000000,1.000000 
	C342.333344,1.000000 683.666687,1.000000 1025.000000,1.000000 
	C1025.000000,342.333344 1025.000000,683.666687 1025.000000,1025.000000 
	C868.166687,1025.000000 711.333313,1025.000000 554.000000,1025.000000 
M688.710327,947.115295 
	C694.430420,944.754150 700.265381,942.635803 705.851013,939.990662 
	C732.268982,927.479736 757.906921,913.619690 781.822998,896.666199 
	C801.718689,882.562561 820.529297,867.157715 838.057068,850.260376 
	C847.701416,840.962891 856.771973,831.010559 865.499329,820.837158 
	C875.663574,808.989075 885.870239,797.067932 894.820923,784.310181 
	C915.407654,754.967163 933.362549,723.999634 946.053467,690.379517 
	C953.590515,670.412659 960.369141,650.067993 965.915161,629.469482 
	C970.492126,612.470093 973.195312,594.916443 975.904053,577.480225 
	C977.945618,564.338501 979.524963,551.011719 979.803040,537.735718 
	C980.223755,517.644226 979.613403,497.515259 978.890991,477.421967 
	C978.489075,466.242798 977.771729,454.958710 975.778931,443.979187 
	C972.459473,425.690125 968.363770,407.518799 963.936768,389.459259 
	C957.294739,362.364105 947.232971,336.429932 934.982666,311.419922 
	C927.836243,296.829987 920.084717,282.479919 911.713684,268.558075 
	C894.449890,239.846603 873.687805,213.713928 850.738464,189.349030 
	C844.256287,182.467117 837.229736,176.071182 830.179260,169.757935 
	C820.223022,160.842636 810.421021,151.677826 799.829468,143.564346 
	C773.736816,123.576500 746.214905,105.728149 716.188843,92.140610 
	C700.091187,84.856033 683.833191,77.806213 667.244812,71.754570 
	C643.554810,63.112202 619.188416,56.552383 594.173462,53.021378 
	C574.503418,50.244835 554.765869,47.193535 534.965515,46.284039 
	C509.988159,45.136745 484.868103,45.186829 460.007996,49.023094 
	C441.891510,51.818718 423.688263,54.318501 405.782532,58.157291 
	C370.241760,65.776825 336.419006,78.563469 303.905701,94.719147 
	C281.708618,105.748749 260.520355,118.514702 240.402802,133.049210 
	C221.963028,146.371582 204.398712,160.741455 188.030884,176.527451 
	C171.355194,192.610382 156.195755,210.030670 141.963821,228.345520 
	C125.718903,249.250824 111.278053,271.299866 99.247612,294.792297 
	C90.590820,311.696777 82.858032,329.152435 75.922791,346.836670 
	C70.026794,361.870972 65.289108,377.430115 61.096493,393.041046 
	C57.284649,407.234192 54.353661,421.722717 52.026421,436.240082 
	C49.433563,452.414307 46.648155,468.738678 46.282120,485.050079 
	C45.584213,516.150818 44.474586,547.377747 49.988647,578.275391 
	C52.656185,593.222839 54.813240,608.285217 58.126339,623.088501 
	C64.977806,653.701599 75.687286,683.069885 88.886505,711.486511 
	C99.891235,735.178589 112.326347,758.185425 127.926468,779.165039 
	C141.942719,798.014648 156.459671,816.587708 172.010620,834.173035 
	C187.341049,851.509094 205.076385,866.495361 223.252930,880.924133 
	C243.894913,897.310120 265.721069,911.845703 288.866547,924.330872 
	C316.751434,939.372559 345.748718,951.843811 376.159210,961.025818 
	C405.262543,969.813110 434.953888,975.599060 465.100098,978.830322 
	C480.048096,980.432617 495.173370,980.628052 510.228546,980.898560 
	C520.826233,981.088989 531.448120,980.479004 542.045898,979.956665 
	C551.596313,979.485840 561.234375,979.317139 570.646179,977.828918 
	C588.570557,974.994629 606.461182,971.768738 624.181824,967.869507 
	C646.052917,963.057251 667.289856,956.001099 688.710327,947.115295 
z"/>
<path fill="#0025CC" opacity="1.000000" stroke="none" 
	d="
M688.368530,947.309082 
	C667.289856,956.001099 646.052917,963.057251 624.181824,967.869507 
	C606.461182,971.768738 588.570557,974.994629 570.646179,977.828918 
	C561.234375,979.317139 551.596313,979.485840 542.045898,979.956665 
	C531.448120,980.479004 520.826233,981.088989 510.228546,980.898560 
	C495.173370,980.628052 480.048096,980.432617 465.100098,978.830322 
	C434.953888,975.599060 405.262543,969.813110 376.159210,961.025818 
	C345.748718,951.843811 316.751434,939.372559 288.866547,924.330872 
	C265.721069,911.845703 243.894913,897.310120 223.252930,880.924133 
	C205.076385,866.495361 187.341049,851.509094 172.010620,834.173035 
	C156.459671,816.587708 141.942719,798.014648 127.926468,779.165039 
	C112.326347,758.185425 99.891235,735.178589 88.886505,711.486511 
	C75.687286,683.069885 64.977806,653.701599 58.126339,623.088501 
	C54.813240,608.285217 52.656185,593.222839 49.988647,578.275391 
	C44.474586,547.377747 45.584213,516.150818 46.282120,485.050079 
	C46.648155,468.738678 49.433563,452.414307 52.026421,436.240082 
	C54.353661,421.722717 57.284649,407.234192 61.096493,393.041046 
	C65.289108,377.430115 70.026794,361.870972 75.922791,346.836670 
	C82.858032,329.152435 90.590820,311.696777 99.247612,294.792297 
	C111.278053,271.299866 125.718903,249.250824 141.963821,228.345520 
	C156.195755,210.030670 171.355194,192.610382 188.030884,176.527451 
	C204.398712,160.741455 221.963028,146.371582 240.402802,133.049210 
	C260.520355,118.514702 281.708618,105.748749 303.905701,94.719147 
	C336.419006,78.563469 370.241760,65.776825 405.782532,58.157291 
	C423.688263,54.318501 441.891510,51.818718 460.007996,49.023094 
	C484.868103,45.186829 509.988159,45.136745 534.965515,46.284039 
	C554.765869,47.193535 574.503418,50.244835 594.173462,53.021378 
	C619.188416,56.552383 643.554810,63.112202 667.244812,71.754570 
	C683.833191,77.806213 700.091187,84.856033 716.188843,92.140610 
	C746.214905,105.728149 773.736816,123.576500 799.829468,143.564346 
	C810.421021,151.677826 820.223022,160.842636 830.179260,169.757935 
	C837.229736,176.071182 844.256287,182.467117 850.738464,189.349030 
	C873.687805,213.713928 894.449890,239.846603 911.713684,268.558075 
	C920.084717,282.479919 927.836243,296.829987 934.982666,311.419922 
	C947.232971,336.429932 957.294739,362.364105 963.936768,389.459259 
	C968.363770,407.518799 972.459473,425.690125 975.778931,443.979187 
	C977.771729,454.958710 978.489075,466.242798 978.890991,477.421967 
	C979.613403,497.515259 980.223755,517.644226 979.803040,537.735718 
	C979.524963,551.011719 977.945618,564.338501 975.904053,577.480225 
	C973.195312,594.916443 970.492126,612.470093 965.915161,629.469482 
	C960.369141,650.067993 953.590515,670.412659 946.053467,690.379517 
	C933.362549,723.999634 915.407654,754.967163 894.820923,784.310181 
	C885.870239,797.067932 875.663574,808.989075 865.499329,820.837158 
	C856.771973,831.010559 847.701416,840.962891 838.057068,850.260376 
	C820.529297,867.157715 801.718689,882.562561 781.822998,896.666199 
	C757.906921,913.619690 732.268982,927.479736 705.851013,939.990662 
	C700.265381,942.635803 694.430420,944.754150 688.368530,947.309082 
M501.091949,536.657776 
	C439.345215,570.883728 377.598511,605.109619 315.159576,639.719238 
	C315.395813,637.856262 315.457764,636.906799 315.641846,635.981567 
	C327.896088,574.386780 340.188385,512.799622 352.395630,451.195526 
	C354.434448,440.906647 356.240265,430.565552 357.821899,420.197968 
	C358.093567,418.417145 356.829132,414.832581 356.034424,414.761414 
	C353.903748,414.570770 351.251099,415.330933 349.543610,416.660797 
	C347.824493,417.999664 346.856995,420.408478 345.793518,422.468903 
	C322.335083,467.917114 298.859467,513.356567 275.488342,558.849670 
	C239.024200,629.829163 202.629059,700.844116 166.231918,771.858032 
	C164.410324,775.412109 162.602127,779.008789 161.231384,782.748291 
	C159.844849,786.531006 161.432449,788.614624 165.472992,788.477295 
	C167.933853,788.393616 170.476349,787.931458 172.804276,787.125549 
	C221.127319,770.395691 269.478851,753.745605 317.714478,736.766541 
	C387.168365,712.318542 456.530487,687.609863 525.938904,663.032593 
	C600.372864,636.675781 674.826782,610.375427 749.249573,583.987061 
	C798.858704,566.397034 848.438965,548.725342 897.994568,530.985046 
	C901.648071,529.677124 907.119446,530.145020 907.671936,524.676086 
	C908.241943,519.034302 903.092773,517.314392 899.293213,515.242188 
	C880.427063,504.952942 861.505981,494.760101 842.489380,484.751678 
	C749.168518,435.637054 655.810181,386.593811 562.471069,337.513947 
	C559.191162,335.789337 555.973816,333.945679 552.059387,331.789581 
	C554.491882,330.345123 556.033875,329.395874 557.606567,328.500610 
	C588.732849,310.781860 620.115051,293.491241 650.844604,275.109528 
	C660.604065,269.271606 668.877014,267.087860 678.262085,274.304321 
	C678.519226,274.502045 678.863342,274.586823 679.167358,274.723206 
	C720.815063,293.407501 762.464966,312.087158 804.107849,330.782196 
	C808.881104,332.925140 813.615784,335.154022 819.097290,337.678833 
	C814.244263,341.683655 810.046753,344.908752 806.175415,348.486725 
	C805.003418,349.569824 804.734314,351.629852 804.051636,353.242432 
	C805.657227,353.807800 807.281250,354.903870 808.865295,354.848877 
	C816.687866,354.577271 824.502136,354.035217 832.314941,353.521637 
	C838.798401,353.095428 845.304688,352.798615 851.738342,351.963165 
	C853.674133,351.711792 855.400513,349.847412 857.222839,348.721985 
	C856.016541,346.940735 854.888367,345.098175 853.562195,343.411163 
	C853.089905,342.810425 852.140320,342.581757 851.403748,342.192413 
	C789.250427,309.332733 727.116760,276.436005 664.932373,243.635345 
	C642.554688,231.831680 620.012146,220.340179 597.652710,208.502609 
	C593.877747,206.504044 591.761597,208.182343 589.389282,210.483749 
	C549.566040,249.116531 509.701202,287.706573 469.929138,326.391998 
	C456.674011,339.284973 443.548676,352.315979 430.577606,365.494110 
	C425.488861,370.664093 426.436401,373.875549 433.052032,376.599854 
	C446.298431,382.054688 459.476044,387.681610 472.786133,392.975891 
	C526.960632,414.524506 581.175476,435.971649 635.367737,457.475861 
	C636.618164,457.972076 637.776550,458.700470 639.707886,459.697418 
	C593.149109,485.534424 547.434265,510.903076 501.091949,536.657776 
z"/>
<path fill="#FDFDFF" opacity="1.000000" stroke="none" 
	d="
M501.405701,536.464722 
	C547.434265,510.903076 593.149109,485.534424 639.707886,459.697418 
	C637.776550,458.700470 636.618164,457.972076 635.367737,457.475861 
	C581.175476,435.971649 526.960632,414.524506 472.786133,392.975891 
	C459.476044,387.681610 446.298431,382.054688 433.052032,376.599854 
	C426.436401,373.875549 425.488861,370.664093 430.577606,365.494110 
	C443.548676,352.315979 456.674011,339.284973 469.929138,326.391998 
	C509.701202,287.706573 549.566040,249.116531 589.389282,210.483749 
	C591.761597,208.182343 593.877747,206.504044 597.652710,208.502609 
	C620.012146,220.340179 642.554688,231.831680 664.932373,243.635345 
	C727.116760,276.436005 789.250427,309.332733 851.403748,342.192413 
	C852.140320,342.581757 853.089905,342.810425 853.562195,343.411163 
	C854.888367,345.098175 856.016541,346.940735 857.222839,348.721985 
	C855.400513,349.847412 853.674133,351.711792 851.738342,351.963165 
	C845.304688,352.798615 838.798401,353.095428 832.314941,353.521637 
	C824.502136,354.035217 816.687866,354.577271 808.865295,354.848877 
	C807.281250,354.903870 805.657227,353.807800 804.051636,353.242432 
	C804.734314,351.629852 805.003418,349.569824 806.175415,348.486725 
	C810.046753,344.908752 814.244263,341.683655 819.097290,337.678833 
	C813.615784,335.154022 808.881104,332.925140 804.107849,330.782196 
	C762.464966,312.087158 720.815063,293.407501 679.167358,274.723206 
	C678.863342,274.586823 678.519226,274.502045 678.262085,274.304321 
	C668.877014,267.087860 660.604065,269.271606 650.844604,275.109528 
	C620.115051,293.491241 588.732849,310.781860 557.606567,328.500610 
	C556.033875,329.395874 554.491882,330.345123 552.059387,331.789581 
	C555.973816,333.945679 559.191162,335.789337 562.471069,337.513947 
	C655.810181,386.593811 749.168518,435.637054 842.489380,484.751678 
	C861.505981,494.760101 880.427063,504.952942 899.293213,515.242188 
	C903.092773,517.314392 908.241943,519.034302 907.671936,524.676086 
	C907.119446,530.145020 901.648071,529.677124 897.994568,530.985046 
	C848.438965,548.725342 798.858704,566.397034 749.249573,583.987061 
	C674.826782,610.375427 600.372864,636.675781 525.938904,663.032593 
	C456.530487,687.609863 387.168365,712.318542 317.714478,736.766541 
	C269.478851,753.745605 221.127319,770.395691 172.804276,787.125549 
	C170.476349,787.931458 167.933853,788.393616 165.472992,788.477295 
	C161.432449,788.614624 159.844849,786.531006 161.231384,782.748291 
	C162.602127,779.008789 164.410324,775.412109 166.231918,771.858032 
	C202.629059,700.844116 239.024200,629.829163 275.488342,558.849670 
	C298.859467,513.356567 322.335083,467.917114 345.793518,422.468903 
	C346.856995,420.408478 347.824493,417.999664 349.543610,416.660797 
	C351.251099,415.330933 353.903748,414.570770 356.034424,414.761414 
	C356.829132,414.832581 358.093567,418.417145 357.821899,420.197968 
	C356.240265,430.565552 354.434448,440.906647 352.395630,451.195526 
	C340.188385,512.799622 327.896088,574.386780 315.641846,635.981567 
	C315.457764,636.906799 315.395813,637.856262 315.159576,639.719238 
	C377.598511,605.109619 439.345215,570.883728 501.405701,536.464722 
z"/>
</svg>